# xmcd
#
# Track frame offsets: 
#        150
#        17032
#        31142
#        49032
#        62662
#        74945
#        92967
#        105165
#        127112
#        143795
#
# Disc length: 2113 seconds
#
# Revision: 2
# Processed by: cddbd v1.5.2PL0 Copyright (c) Steve Scherf et al.
# Submitted via: ExactAudioCopy v0.99pb5
#
DISCID=8c083f0a
DTITLE=Chet Baker - Sings and Plays
DYEAR=1955
DGENRE=Blues
TTITLE0=Let's get lost
TTITLE1=This is always
TTITLE2=Long ago and far away
TTITLE3=Someone to watch over me
TTITLE4=Just friends
TTITLE5=I wish I knew
TTITLE6=Daybreak
TTITLE7=You don't know what love is
TTITLE8=Grey december
TTITLE9=I remember you
EXTD=YEAR: 1955
EXTT0=
EXTT1=
EXTT2=
EXTT3=
EXTT4=
EXTT5=
EXTT6=
EXTT7=
EXTT8=
EXTT9=
PLAYORDER=
